<?xml version="1.0" encoding="UTF-8" standalone="no"?><svg xmlns="http://www.w3.org/2000/svg" xmlns:xlink="http://www.w3.org/1999/xlink" contentScriptType="application/ecmascript" contentStyleType="text/css" height="597px" preserveAspectRatio="none" style="width:859px;height:597px;" version="1.1" viewBox="0 0 859 597" width="859px" zoomAndPan="magnify"><defs><filter height="300%" id="fbqsnqs4illhm" width="300%" x="-1" y="-1"><feGaussianBlur result="blurOut" stdDeviation="2.0"/><feColorMatrix in="blurOut" result="blurOut2" type="matrix" values="0 0 0 0 0 0 0 0 0 0 0 0 0 0 0 0 0 0 .4 0"/><feOffset dx="4.0" dy="4.0" in="blurOut2" result="blurOut3"/><feBlend in="SourceGraphic" in2="blurOut3" mode="normal"/></filter></defs><g><!--cluster Audiobus--><polygon fill="#FFFFFF" filter="url(#fbqsnqs4illhm)" points="22,34,32,24,439,24,439,294,429,304,22,304,22,34" style="stroke: #000000; stroke-width: 1.5;"/><line style="stroke: #000000; stroke-width: 1.5;" x1="429" x2="438" y1="34" y2="25"/><line style="stroke: #000000; stroke-width: 1.5;" x1="22" x2="429" y1="34" y2="34"/><line style="stroke: #000000; stroke-width: 1.5;" x1="429" x2="429" y1="34" y2="304"/><text fill="#000000" font-family="sans-serif" font-size="14" font-weight="bold" lengthAdjust="spacingAndGlyphs" textLength="68" x="192.5" y="50.5352">Audiobus</text><!--cluster Audio--><polygon fill="#FFFFFF" filter="url(#fbqsnqs4illhm)" points="46,82,56,72,259,72,259,270,249,280,46,280,46,82" style="stroke: #000000; stroke-width: 1.5;"/><line style="stroke: #000000; stroke-width: 1.5;" x1="249" x2="258" y1="82" y2="73"/><line style="stroke: #000000; stroke-width: 1.5;" x1="46" x2="249" y1="82" y2="82"/><line style="stroke: #000000; stroke-width: 1.5;" x1="249" x2="249" y1="82" y2="280"/><text fill="#000000" font-family="sans-serif" font-size="14" font-weight="bold" lengthAdjust="spacingAndGlyphs" textLength="42" x="127.5" y="98.5352">Audio</text><!--cluster Midi--><polygon fill="#FFFFFF" filter="url(#fbqsnqs4illhm)" points="283,82,293,72,415,72,415,154,405,164,283,164,283,82" style="stroke: #000000; stroke-width: 1.5;"/><line style="stroke: #000000; stroke-width: 1.5;" x1="405" x2="414" y1="82" y2="73"/><line style="stroke: #000000; stroke-width: 1.5;" x1="283" x2="405" y1="82" y2="82"/><line style="stroke: #000000; stroke-width: 1.5;" x1="405" x2="405" y1="82" y2="164"/><text fill="#000000" font-family="sans-serif" font-size="14" font-weight="bold" lengthAdjust="spacingAndGlyphs" textLength="32" x="329" y="98.5352">Midi</text><!--cluster aum--><polygon fill="#FFFFFF" filter="url(#fbqsnqs4illhm)" points="463,198,473,188,837,188,837,575,827,585,463,585,463,198" style="stroke: #000000; stroke-width: 1.5;"/><line style="stroke: #000000; stroke-width: 1.5;" x1="827" x2="836" y1="198" y2="189"/><line style="stroke: #000000; stroke-width: 1.5;" x1="463" x2="827" y1="198" y2="198"/><line style="stroke: #000000; stroke-width: 1.5;" x1="827" x2="827" y1="198" y2="585"/><text fill="#000000" font-family="sans-serif" font-size="14" font-weight="bold" lengthAdjust="spacingAndGlyphs" textLength="33" x="629.5" y="214.5352">AUM</text><!--entity bw_in--><rect fill="#FEFECE" filter="url(#fbqsnqs4illhm)" height="36.4883" style="stroke: #A80036; stroke-width: 1.5;" width="94" x="149" y="112"/><rect fill="#FEFECE" height="5" style="stroke: #A80036; stroke-width: 1.5;" width="10" x="144" y="117"/><rect fill="#FEFECE" height="5" style="stroke: #A80036; stroke-width: 1.5;" width="10" x="144" y="138.4883"/><text fill="#000000" font-family="sans-serif" font-size="14" lengthAdjust="spacingAndGlyphs" textLength="74" x="159" y="135.5352">Blocs Wave</text><!--entity aum_out--><rect fill="#FEFECE" filter="url(#fbqsnqs4illhm)" height="36.4883" style="stroke: #A80036; stroke-width: 1.5;" width="52" x="191" y="228"/><rect fill="#FEFECE" height="5" style="stroke: #A80036; stroke-width: 1.5;" width="10" x="186" y="233"/><rect fill="#FEFECE" height="5" style="stroke: #A80036; stroke-width: 1.5;" width="10" x="186" y="254.4883"/><text fill="#000000" font-family="sans-serif" font-size="14" lengthAdjust="spacingAndGlyphs" textLength="32" x="201" y="251.5352">AUM</text><!--entity aum_in--><rect fill="#FEFECE" filter="url(#fbqsnqs4illhm)" height="36.4883" style="stroke: #A80036; stroke-width: 1.5;" width="52" x="62" y="112"/><rect fill="#FEFECE" height="5" style="stroke: #A80036; stroke-width: 1.5;" width="10" x="57" y="117"/><rect fill="#FEFECE" height="5" style="stroke: #A80036; stroke-width: 1.5;" width="10" x="57" y="138.4883"/><text fill="#000000" font-family="sans-serif" font-size="14" lengthAdjust="spacingAndGlyphs" textLength="32" x="72" y="135.5352">AUM</text><!--entity bw_out--><rect fill="#FEFECE" filter="url(#fbqsnqs4illhm)" height="36.4883" style="stroke: #A80036; stroke-width: 1.5;" width="94" x="62" y="228"/><rect fill="#FEFECE" height="5" style="stroke: #A80036; stroke-width: 1.5;" width="10" x="57" y="233"/><rect fill="#FEFECE" height="5" style="stroke: #A80036; stroke-width: 1.5;" width="10" x="57" y="254.4883"/><text fill="#000000" font-family="sans-serif" font-size="14" lengthAdjust="spacingAndGlyphs" textLength="74" x="72" y="251.5352">Blocs Wave</text><!--entity xeq--><rect fill="#FEFECE" filter="url(#fbqsnqs4illhm)" height="36.4883" style="stroke: #A80036; stroke-width: 1.5;" width="100" x="299" y="112"/><rect fill="#FEFECE" height="5" style="stroke: #A80036; stroke-width: 1.5;" width="10" x="294" y="117"/><rect fill="#FEFECE" height="5" style="stroke: #A80036; stroke-width: 1.5;" width="10" x="294" y="138.4883"/><text fill="#000000" font-family="sans-serif" font-size="14" lengthAdjust="spacingAndGlyphs" textLength="80" x="309" y="135.5352">Xequence 2</text><!--entity bw_in_a--><rect fill="#FEFECE" filter="url(#fbqsnqs4illhm)" height="36.4883" style="stroke: #A80036; stroke-width: 1.5;" width="126" x="695" y="228"/><rect fill="#FEFECE" height="5" style="stroke: #A80036; stroke-width: 1.5;" width="10" x="690" y="233"/><rect fill="#FEFECE" height="5" style="stroke: #A80036; stroke-width: 1.5;" width="10" x="690" y="254.4883"/><text fill="#000000" font-family="sans-serif" font-size="14" lengthAdjust="spacingAndGlyphs" textLength="106" x="705" y="251.5352">Blocs Wave (AB)</text><!--entity audio1--><rect fill="#FEFECE" filter="url(#fbqsnqs4illhm)" height="36.4883" style="stroke: #A80036; stroke-width: 1.5;" width="87" x="718.5" y="324"/><rect fill="#FEFECE" height="5" style="stroke: #A80036; stroke-width: 1.5;" width="10" x="713.5" y="329"/><rect fill="#FEFECE" height="5" style="stroke: #A80036; stroke-width: 1.5;" width="10" x="713.5" y="350.4883"/><text fill="#000000" font-family="sans-serif" font-size="14" lengthAdjust="spacingAndGlyphs" textLength="67" x="728.5" y="347.5352">Audio HW</text><!--entity mb1--><rect fill="#FEFECE" filter="url(#fbqsnqs4illhm)" height="36.4883" style="stroke: #A80036; stroke-width: 1.5;" width="87" x="572.5" y="228"/><rect fill="#FEFECE" height="5" style="stroke: #A80036; stroke-width: 1.5;" width="10" x="567.5" y="233"/><rect fill="#FEFECE" height="5" style="stroke: #A80036; stroke-width: 1.5;" width="10" x="567.5" y="254.4883"/><text fill="#000000" font-family="sans-serif" font-size="14" lengthAdjust="spacingAndGlyphs" textLength="67" x="582.5" y="251.5352">Mix bus 1</text><!--entity bw_out_a--><rect fill="#FEFECE" filter="url(#fbqsnqs4illhm)" height="36.4883" style="stroke: #A80036; stroke-width: 1.5;" width="126" x="557" y="324"/><rect fill="#FEFECE" height="5" style="stroke: #A80036; stroke-width: 1.5;" width="10" x="552" y="329"/><rect fill="#FEFECE" height="5" style="stroke: #A80036; stroke-width: 1.5;" width="10" x="552" y="350.4883"/><text fill="#000000" font-family="sans-serif" font-size="14" lengthAdjust="spacingAndGlyphs" textLength="106" x="567" y="347.5352">Blocs Wave (AB)</text><!--entity synth--><rect fill="#FEFECE" filter="url(#fbqsnqs4illhm)" height="36.4883" style="stroke: #A80036; stroke-width: 1.5;" width="58" x="479" y="228"/><rect fill="#FEFECE" height="5" style="stroke: #A80036; stroke-width: 1.5;" width="10" x="474" y="233"/><rect fill="#FEFECE" height="5" style="stroke: #A80036; stroke-width: 1.5;" width="10" x="474" y="254.4883"/><text fill="#000000" font-family="sans-serif" font-size="14" lengthAdjust="spacingAndGlyphs" textLength="38" x="489" y="251.5352">Synth</text><!--entity fx--><rect fill="#FEFECE" filter="url(#fbqsnqs4illhm)" height="36.4883" style="stroke: #A80036; stroke-width: 1.5;" width="37" x="484.5" y="324"/><rect fill="#FEFECE" height="5" style="stroke: #A80036; stroke-width: 1.5;" width="10" x="479.5" y="329"/><rect fill="#FEFECE" height="5" style="stroke: #A80036; stroke-width: 1.5;" width="10" x="479.5" y="350.4883"/><text fill="#000000" font-family="sans-serif" font-size="14" lengthAdjust="spacingAndGlyphs" textLength="17" x="494.5" y="347.5352">FX</text><!--entity send1--><rect fill="#FEFECE" filter="url(#fbqsnqs4illhm)" height="52.9766" style="stroke: #A80036; stroke-width: 1.5;" width="86" x="479" y="420"/><rect fill="#FEFECE" height="5" style="stroke: #A80036; stroke-width: 1.5;" width="10" x="474" y="425"/><rect fill="#FEFECE" height="5" style="stroke: #A80036; stroke-width: 1.5;" width="10" x="474" y="462.9766"/><text fill="#000000" font-family="sans-serif" font-size="14" lengthAdjust="spacingAndGlyphs" textLength="52" x="489" y="443.5352">Send to</text><text fill="#000000" font-family="sans-serif" font-size="14" lengthAdjust="spacingAndGlyphs" textLength="66" x="489" y="460.0234">Mix Bus 1</text><!--entity audio2--><rect fill="#FEFECE" filter="url(#fbqsnqs4illhm)" height="36.4883" style="stroke: #A80036; stroke-width: 1.5;" width="87" x="479.5" y="533"/><rect fill="#FEFECE" height="5" style="stroke: #A80036; stroke-width: 1.5;" width="10" x="474.5" y="538"/><rect fill="#FEFECE" height="5" style="stroke: #A80036; stroke-width: 1.5;" width="10" x="474.5" y="559.4883"/><text fill="#000000" font-family="sans-serif" font-size="14" lengthAdjust="spacingAndGlyphs" textLength="67" x="489.5" y="556.5352">Audio HW</text><!--link bw_in to aum_out--><path d="M199.19,148.31 C202.86,168.27 208.91,201.1 212.93,222.88 " fill="none" id="bw_in-&gt;aum_out" style="stroke: #A80036; stroke-width: 1.0;"/><polygon fill="#A80036" points="213.85,227.9,216.1363,218.3202,212.9355,222.9843,208.2713,219.7835,213.85,227.9" style="stroke: #A80036; stroke-width: 1.0;"/><!--link aum_in to bw_out--><path d="M91.19,148.31 C94.86,168.27 100.91,201.1 104.93,222.88 " fill="none" id="aum_in-&gt;bw_out" style="stroke: #A80036; stroke-width: 1.0;"/><polygon fill="#A80036" points="105.85,227.9,108.1363,218.3202,104.9355,222.9843,100.2713,219.7835,105.85,227.9" style="stroke: #A80036; stroke-width: 1.0;"/><!--link bw_in_a to audio1--><path d="M758.73,264.24 C759.38,279.48 760.33,301.81 761.04,318.46 " fill="none" id="bw_in_a-&gt;audio1" style="stroke: #A80036; stroke-width: 1.0;"/><polygon fill="#A80036" points="761.27,323.87,764.881,314.707,761.0559,318.8746,756.8883,315.0495,761.27,323.87" style="stroke: #A80036; stroke-width: 1.0;"/><!--link mb1 to bw_out_a--><path d="M616.73,264.24 C617.38,279.48 618.33,301.81 619.04,318.46 " fill="none" id="mb1-&gt;bw_out_a" style="stroke: #A80036; stroke-width: 1.0;"/><polygon fill="#A80036" points="619.27,323.87,622.881,314.707,619.0559,318.8746,614.8883,315.0495,619.27,323.87" style="stroke: #A80036; stroke-width: 1.0;"/><!--link synth to fx--><path d="M507.08,264.24 C506.27,279.48 505.08,301.81 504.2,318.46 " fill="none" id="synth-&gt;fx" style="stroke: #A80036; stroke-width: 1.0;"/><polygon fill="#A80036" points="503.91,323.87,508.3933,315.1008,504.1818,318.8774,500.4052,314.6659,503.91,323.87" style="stroke: #A80036; stroke-width: 1.0;"/><!--link fx to send1--><path d="M506.22,360.39 C508.97,375.19 512.98,396.82 516.27,414.57 " fill="none" id="fx-&gt;send1" style="stroke: #A80036; stroke-width: 1.0;"/><polygon fill="#A80036" points="517.26,419.94,519.5463,410.3602,516.3455,415.0243,511.6813,411.8235,517.26,419.94" style="stroke: #A80036; stroke-width: 1.0;"/><!--link send1 to audio2--><path d="M522.25,473.1 C522.41,489.83 522.62,511.47 522.78,527.53 " fill="none" id="send1-&gt;audio2" style="stroke: #A80036; stroke-width: 1.0;"/><polygon fill="#A80036" points="522.83,532.75,526.7527,523.716,522.7871,527.7502,518.753,523.7846,522.83,532.75" style="stroke: #A80036; stroke-width: 1.0;"/><!--link xeq to synth--><path d="M372.8,148.07 C401.37,168.55 449.23,202.86 479.67,224.69 " fill="none" id="xeq-&gt;synth" style="stroke: #A80036; stroke-width: 1.0; stroke-dasharray: 7.0,7.0;"/><polygon fill="#A80036" points="484.03,227.82,479.0398,219.329,479.9642,224.9098,474.3834,225.8342,484.03,227.82" style="stroke: #A80036; stroke-width: 1.0;"/><!--
@startuml
skinparam monochrome false
!pragma horizontalLineBetweenDifferentPackageAllowed

node "Audiobus" {
    node "Audio" {
    [Blocs Wave] as bw_in
    [AUM] as aum_out
    [AUM] as aum_in
    [Blocs Wave] as bw_out
    bw_in - -> aum_out
    aum_in - -> bw_out
    }
    node "Midi" {
        [Xequence 2] as xeq
    }
}

node "AUM" as aum {
    [Blocs Wave (AB)] as bw_in_a
    [Audio HW] as audio1
    bw_in_a - -> audio1

    [Mix bus 1] as mb1
    [Blocs Wave (AB)] as bw_out_a
    mb1 - -> bw_out_a

    [Synth] as synth
    [FX] as fx
    [Send to\nMix Bus 1] as send1
    [Audio HW] as audio2
    synth - -> fx
    fx - -> send1
    send1 - -> audio2

    xeq -.> synth
}
@enduml

PlantUML version 1.2019.09(Mon Aug 26 18:19:51 CEST 2019)
(GPL source distribution)
Java Runtime: OpenJDK Runtime Environment
JVM: OpenJDK 64-Bit Server VM
Java Version: 13+33
Operating System: Mac OS X
OS Version: 10.14.6
Default Encoding: UTF-8
Language: en
Country: DE
--></g></svg>